<svg xmlns="http://www.w3.org/2000/svg" version="1.1" xmlns:xlink="http://www.w3.org/1999/xlink" xmlns:svgjs="http://svgjs.dev/svgjs" width="1500" height="1500" viewBox="0 0 1500 1500"><rect width="1500" height="1500" fill="#000000"></rect><g transform="matrix(0.6666666666666666,0,0,0.6666666666666666,249.39393939393938,450.03697966294914)"><svg viewBox="0 0 396 237" data-background-color="#efefef" preserveAspectRatio="xMidYMid meet" height="897" width="1500" xmlns="http://www.w3.org/2000/svg" xmlns:xlink="http://www.w3.org/1999/xlink"><g id="tight-bounds" transform="matrix(1,0,0,1,0.2400000000000091,0.38166525063722645)"><svg viewBox="0 0 395.52 236.23666949872555" height="236.23666949872555" width="395.52"><g><svg viewBox="0 0 395.52 236.23666949872555" height="236.23666949872555" width="395.52"><g><svg viewBox="0 0 395.52 236.23666949872555" height="236.23666949872555" width="395.52"><g id="textblocktransform"><svg viewBox="0 0 395.52 236.23666949872555" height="236.23666949872555" width="395.52" id="textblock"><g><svg viewBox="0 0 395.52 236.23666949872555" height="236.23666949872555" width="395.52"><g transform="matrix(1,0,0,1,0,0)"><svg width="395.52" viewBox="1.25 -35.1 58.85 35.15" height="236.23666949872555" data-palette-color="#d94e28"><path d="M11.9-2.95L11.9-2.95Q17.45-2.95 20.15-5.75L20.15-5.75Q21.7-7.35 21.7-9.55 21.7-11.75 20.63-13.18 19.55-14.6 17.85-15.38 16.15-16.15 14.08-16.73 12-17.3 9.93-17.95 7.85-18.6 6.15-19.5 4.45-20.4 3.38-22.05 2.3-23.7 2.3-26L2.3-26Q2.3-30 5.3-32.55 8.3-35.1 13.25-35.1 18.2-35.1 22.55-34.1L22.55-34.1 22.55-34.05 22.7-34.05 23.25-27.8 20.8-27.4 20.25-31.6Q17.45-32.1 14.08-32.1 10.7-32.1 8.2-30.63 5.7-29.15 5.7-26.45 5.7-23.75 7.7-22.35 9.7-20.95 12.55-20.23 15.4-19.5 18.25-18.6 21.1-17.7 23.1-15.5 25.1-13.3 25.1-9.7L25.1-9.7Q25.1-4.85 21.5-2.4 17.9 0.05 12.55 0.05L12.55 0.05Q5.8 0.05 1.25-3L1.25-3 1.3-8.3 3.75-8.55 3.85-4.75Q7.65-2.95 11.9-2.95ZM53.3-32.25L50.3-32.25 50.3-35 60.1-35 60.1-32.25 56.5-32.25 45.1 0 41.8 0 29.95-32.25 26.65-32.25 26.65-35 36.75-35 36.75-32.25 33.3-32.25 43.7-3.8 53.3-32.25Z" opacity="1" transform="matrix(1,0,0,1,0,0)" fill="#ffffff" class="wordmark-text-0" data-fill-palette-color="primary" id="text-0"></path></svg></g></svg></g></svg></g></svg></g><g></g></svg></g><defs></defs></svg><rect width="395.52" height="236.23666949872555" fill="none" stroke="none" visibility="hidden"></rect></g></svg></g></svg>